<svg width="517" height="72" viewBox="0 0 517 72" fill="none" xmlns="http://www.w3.org/2000/svg">
<path d="M51.3155 57C48.8774 57 46.744 56.0857 44.9155 54.2571C43.0869 52.4286 42.1726 50.2952 42.1726 47.8571V23.4762C42.1726 21.0381 43.0869 18.9048 44.9155 17.0762C46.744 15.2476 48.8774 14.3333 51.3155 14.3333H63.506C65.944 14.3333 68.0774 15.2476 69.906 17.0762C71.7345 18.9048 72.6488 21.0381 72.6488 23.4762V47.8571C72.6488 50.2952 71.7345 52.4286 69.906 54.2571C68.0774 56.0857 65.944 57 63.506 57H51.3155ZM66.5536 23.4762C66.5536 22.6635 66.2488 21.9524 65.6393 21.3429C65.0298 20.7333 64.3187 20.4286 63.506 20.4286H51.3155C50.5028 20.4286 49.7917 20.7333 49.1821 21.3429C48.5726 21.9524 48.2679 22.6635 48.2679 23.4762V47.8571C48.2679 48.6698 48.5726 49.381 49.1821 49.9905C49.7917 50.6 50.5028 50.9048 51.3155 50.9048H63.506C64.3187 50.9048 65.0298 50.6 65.6393 49.9905C66.2488 49.381 66.5536 48.6698 66.5536 47.8571V23.4762ZM106.164 57C105.351 57 104.64 56.6952 104.03 56.0857L93.9732 46.0286L90.9256 49.0762V53.9524C90.9256 54.7651 90.6208 55.4762 90.0113 56.0857C89.4018 56.6952 88.6907 57 87.878 57C87.0653 57 86.3542 56.6952 85.7446 56.0857C85.1351 55.4762 84.8304 54.7651 84.8304 53.9524V17.381C84.8304 16.5683 85.1351 15.8571 85.7446 15.2476C86.3542 14.6381 87.0653 14.3333 87.878 14.3333C88.6907 14.3333 89.4018 14.6381 90.0113 15.2476C90.6208 15.8571 90.9256 16.5683 90.9256 17.381V40.421L104.03 27.4381C104.64 26.8286 105.351 26.5238 106.164 26.5238C106.976 26.5238 107.688 26.8286 108.297 27.4381C108.907 28.0476 109.211 28.7587 109.211 29.5714C109.211 30.3841 108.907 31.0952 108.297 31.7048L98.2399 41.64L108.297 51.819C108.907 52.4286 109.211 53.1397 109.211 53.9524C109.211 54.7651 108.907 55.4762 108.297 56.0857C107.688 56.6952 106.976 57 106.164 57ZM124.44 57C122.002 57 119.869 56.0857 118.04 54.2571C116.212 52.4286 115.298 50.2952 115.298 47.8571C115.298 45.419 116.212 43.2857 118.04 41.4571C119.869 39.6286 122.002 38.7143 124.44 38.7143H139.679V35.6667C139.679 34.854 139.374 34.1429 138.764 33.5333C138.155 32.9238 137.444 32.619 136.631 32.619H124.44C123.628 32.619 122.917 32.3143 122.307 31.7048C121.698 31.0952 121.393 30.3841 121.393 29.5714C121.393 28.7587 121.698 28.0476 122.307 27.4381C122.917 26.8286 123.628 26.5238 124.44 26.5238H136.631C139.069 26.5238 141.202 27.4381 143.031 29.2667C144.86 31.0952 145.774 33.2286 145.774 35.6667V53.9524C145.774 54.7651 145.469 55.4762 144.86 56.0857C144.25 56.6952 143.539 57 142.726 57H124.44ZM139.679 44.8095H124.44C123.628 44.8095 122.917 45.1143 122.307 45.7238C121.698 46.3333 121.393 47.0444 121.393 47.8571C121.393 48.6698 121.698 49.381 122.307 49.9905C122.917 50.6 123.628 50.9048 124.44 50.9048H139.679V44.8095ZM154.908 57C154.095 57 153.384 56.6952 152.774 56.0857C152.165 55.4762 151.86 54.7651 151.86 53.9524C151.86 53.1397 152.165 52.4286 152.774 51.819L171.852 32.619H154.908C154.095 32.619 153.384 32.3143 152.774 31.7048C152.165 31.0952 151.86 30.3841 151.86 29.5714C151.86 28.7587 152.165 28.0476 152.774 27.4381C153.384 26.8286 154.095 26.5238 154.908 26.5238H179.289C180.101 26.5238 180.812 26.8286 181.422 27.4381C182.032 28.0476 182.336 28.7587 182.336 29.5714C182.336 30.3841 182.032 31.0952 181.422 31.7048L162.1 50.9048H179.289C180.101 50.9048 180.812 51.2095 181.422 51.819C182.032 52.4286 182.336 53.1397 182.336 53.9524C182.336 54.7651 182.032 55.4762 181.422 56.0857C180.812 56.6952 180.101 57 179.289 57H154.908ZM197.565 57C195.127 57 192.994 56.0857 191.165 54.2571C189.337 52.4286 188.423 50.2952 188.423 47.8571C188.423 45.419 189.337 43.2857 191.165 41.4571C192.994 39.6286 195.127 38.7143 197.565 38.7143H212.804V35.6667C212.804 34.854 212.499 34.1429 211.889 33.5333C211.28 32.9238 210.569 32.619 209.756 32.619H197.565C196.753 32.619 196.042 32.3143 195.432 31.7048C194.823 31.0952 194.518 30.3841 194.518 29.5714C194.518 28.7587 194.823 28.0476 195.432 27.4381C196.042 26.8286 196.753 26.5238 197.565 26.5238H209.756C212.194 26.5238 214.327 27.4381 216.156 29.2667C217.985 31.0952 218.899 33.2286 218.899 35.6667V53.9524C218.899 54.7651 218.594 55.4762 217.985 56.0857C217.375 56.6952 216.664 57 215.851 57H197.565ZM212.804 44.8095H197.565C196.753 44.8095 196.042 45.1143 195.432 45.7238C194.823 46.3333 194.518 47.0444 194.518 47.8571C194.518 48.6698 194.823 49.381 195.432 49.9905C196.042 50.6 196.753 50.9048 197.565 50.9048H212.804V44.8095ZM252.414 57C251.601 57 250.89 56.6952 250.28 56.0857L240.223 46.0286L237.176 49.0762V53.9524C237.176 54.7651 236.871 55.4762 236.261 56.0857C235.652 56.6952 234.941 57 234.128 57C233.315 57 232.604 56.6952 231.995 56.0857C231.385 55.4762 231.08 54.7651 231.08 53.9524V17.381C231.08 16.5683 231.385 15.8571 231.995 15.2476C232.604 14.6381 233.315 14.3333 234.128 14.3333C234.941 14.3333 235.652 14.6381 236.261 15.2476C236.871 15.8571 237.176 16.5683 237.176 17.381V40.421L250.28 27.4381C250.89 26.8286 251.601 26.5238 252.414 26.5238C253.226 26.5238 253.938 26.8286 254.547 27.4381C255.157 28.0476 255.461 28.7587 255.461 29.5714C255.461 30.3841 255.157 31.0952 254.547 31.7048L244.49 41.64L254.547 51.819C255.157 52.4286 255.461 53.1397 255.461 53.9524C255.461 54.7651 255.157 55.4762 254.547 56.0857C253.938 56.6952 253.226 57 252.414 57ZM270.69 57C268.252 57 266.119 56.0857 264.29 54.2571C262.462 52.4286 261.548 50.2952 261.548 47.8571V35.6667C261.548 33.2286 262.462 31.0952 264.29 29.2667C266.119 27.4381 268.252 26.5238 270.69 26.5238H282.881C285.319 26.5238 287.452 27.4381 289.281 29.2667C291.11 31.0952 292.024 33.2286 292.024 35.6667V41.7619C292.024 42.5746 291.719 43.2857 291.11 43.8952C290.5 44.5048 289.789 44.8095 288.976 44.8095H267.643V47.8571C267.643 48.6698 267.948 49.381 268.557 49.9905C269.167 50.6 269.878 50.9048 270.69 50.9048H282.881C283.694 50.9048 284.405 51.2095 285.014 51.819C285.624 52.4286 285.929 53.1397 285.929 53.9524C285.929 54.7651 285.624 55.4762 285.014 56.0857C284.405 56.6952 283.694 57 282.881 57H270.69ZM267.643 38.7143H285.929V35.6667C285.929 34.854 285.624 34.1429 285.014 33.5333C284.405 32.9238 283.694 32.619 282.881 32.619H270.69C269.878 32.619 269.167 32.9238 268.557 33.5333C267.948 34.1429 267.643 34.854 267.643 35.6667V38.7143ZM307.253 57C304.815 57 302.682 56.0857 300.853 54.2571C299.024 52.4286 298.11 50.2952 298.11 47.8571V35.6667C298.11 33.2286 299.024 31.0952 300.853 29.2667C302.682 27.4381 304.815 26.5238 307.253 26.5238H319.443C321.882 26.5238 324.015 27.4381 325.843 29.2667C327.672 31.0952 328.586 33.2286 328.586 35.6667V41.7619C328.586 42.5746 328.282 43.2857 327.672 43.8952C327.062 44.5048 326.351 44.8095 325.539 44.8095H304.205V47.8571C304.205 48.6698 304.51 49.381 305.12 49.9905C305.729 50.6 306.44 50.9048 307.253 50.9048H319.443C320.256 50.9048 320.967 51.2095 321.577 51.819C322.186 52.4286 322.491 53.1397 322.491 53.9524C322.491 54.7651 322.186 55.4762 321.577 56.0857C320.967 56.6952 320.256 57 319.443 57H307.253ZM304.205 38.7143H322.491V35.6667C322.491 34.854 322.186 34.1429 321.577 33.5333C320.967 32.9238 320.256 32.619 319.443 32.619H307.253C306.44 32.619 305.729 32.9238 305.12 33.5333C304.51 34.1429 304.205 34.854 304.205 35.6667V38.7143ZM343.815 44.8095H349.911C350.723 44.8095 351.435 45.1143 352.044 45.7238C352.654 46.3333 352.958 47.0444 352.958 47.8571V53.9524C352.958 54.7651 352.654 55.4762 352.044 56.0857C351.435 56.6952 350.723 57 349.911 57H343.815C343.003 57 342.292 56.6952 341.682 56.0857C341.073 55.4762 340.768 54.7651 340.768 53.9524V47.8571C340.768 47.0444 341.073 46.3333 341.682 45.7238C342.292 45.1143 343.003 44.8095 343.815 44.8095ZM380.378 32.619C379.565 32.619 378.854 32.9238 378.245 33.5333C377.635 34.1429 377.33 34.854 377.33 35.6667V47.8571C377.33 48.6698 377.635 49.381 378.245 49.9905C378.854 50.6 379.565 50.9048 380.378 50.9048H395.616V32.619H380.378ZM398.664 57H380.378C377.94 57 375.807 56.0857 373.978 54.2571C372.149 52.4286 371.235 50.2952 371.235 47.8571V35.6667C371.235 33.2286 372.149 31.0952 373.978 29.2667C375.807 27.4381 377.94 26.5238 380.378 26.5238H395.616V17.381C395.616 16.5683 395.921 15.8571 396.53 15.2476C397.14 14.6381 397.851 14.3333 398.664 14.3333C399.476 14.3333 400.188 14.6381 400.797 15.2476C401.407 15.8571 401.711 16.5683 401.711 17.381V53.9524C401.711 54.7651 401.407 55.4762 400.797 56.0857C400.188 56.6952 399.476 57 398.664 57ZM416.94 57C414.502 57 412.369 56.0857 410.54 54.2571C408.712 52.4286 407.798 50.2952 407.798 47.8571V35.6667C407.798 33.2286 408.712 31.0952 410.54 29.2667C412.369 27.4381 414.502 26.5238 416.94 26.5238H429.131C431.569 26.5238 433.702 27.4381 435.531 29.2667C437.36 31.0952 438.274 33.2286 438.274 35.6667V41.7619C438.274 42.5746 437.969 43.2857 437.36 43.8952C436.75 44.5048 436.039 44.8095 435.226 44.8095H413.893V47.8571C413.893 48.6698 414.198 49.381 414.807 49.9905C415.417 50.6 416.128 50.9048 416.94 50.9048H429.131C429.944 50.9048 430.655 51.2095 431.264 51.819C431.874 52.4286 432.179 53.1397 432.179 53.9524C432.179 54.7651 431.874 55.4762 431.264 56.0857C430.655 56.6952 429.944 57 429.131 57H416.94ZM413.893 38.7143H432.179V35.6667C432.179 34.854 431.874 34.1429 431.264 33.5333C430.655 32.9238 429.944 32.619 429.131 32.619H416.94C416.128 32.619 415.417 32.9238 414.807 33.5333C414.198 34.1429 413.893 34.854 413.893 35.6667V38.7143ZM459.598 57C458.786 57 458.074 56.6952 457.465 56.0857L445.274 43.8952C444.665 43.2857 444.36 42.5746 444.36 41.7619V29.5714C444.36 28.7587 444.665 28.0476 445.274 27.4381C445.884 26.8286 446.595 26.5238 447.408 26.5238C448.22 26.5238 448.932 26.8286 449.541 27.4381C450.151 28.0476 450.455 28.7587 450.455 29.5714V38.8362L459.598 47.979L468.741 38.8362V29.5714C468.741 28.7587 469.046 28.0476 469.655 27.4381C470.265 26.8286 470.976 26.5238 471.789 26.5238C472.601 26.5238 473.312 26.8286 473.922 27.4381C474.532 28.0476 474.836 28.7587 474.836 29.5714V41.7619C474.836 42.5746 474.532 43.2857 473.922 43.8952L461.732 56.0857C461.122 56.6952 460.411 57 459.598 57Z" fill="#080808"/>
<path d="M32 5L5.01057 35.985M32 67L5 36" stroke="#080808" stroke-width="10" stroke-linecap="round"/>
<path d="M485 5L511.989 35.985M485 67L512 36" stroke="#080808" stroke-width="10" stroke-linecap="round"/>
</svg>
