<svg width="376" height="72" viewBox="0 0 376 72" fill="none" xmlns="http://www.w3.org/2000/svg">
<path d="M53.4405 57C51.0024 57 48.869 56.0857 47.0405 54.2571C45.2119 52.4286 44.2976 50.2952 44.2976 47.8571V23.4762C44.2976 21.0381 45.2119 18.9048 47.0405 17.0762C48.869 15.2476 51.0024 14.3333 53.4405 14.3333H65.631C68.069 14.3333 70.2024 15.2476 72.031 17.0762C73.8595 18.9048 74.7738 21.0381 74.7738 23.4762V47.8571C74.7738 50.2952 73.8595 52.4286 72.031 54.2571C70.2024 56.0857 68.069 57 65.631 57H53.4405ZM68.6786 23.4762C68.6786 22.6635 68.3738 21.9524 67.7643 21.3429C67.1548 20.7333 66.4437 20.4286 65.631 20.4286H53.4405C52.6278 20.4286 51.9167 20.7333 51.3071 21.3429C50.6976 21.9524 50.3929 22.6635 50.3929 23.4762V47.8571C50.3929 48.6698 50.6976 49.381 51.3071 49.9905C51.9167 50.6 52.6278 50.9048 53.4405 50.9048H65.631C66.4437 50.9048 67.1548 50.6 67.7643 49.9905C68.3738 49.381 68.6786 48.6698 68.6786 47.8571V23.4762ZM108.289 57C107.476 57 106.765 56.6952 106.155 56.0857L96.0982 46.0286L93.0506 49.0762V53.9524C93.0506 54.7651 92.7458 55.4762 92.1363 56.0857C91.5268 56.6952 90.8157 57 90.003 57C89.1903 57 88.4792 56.6952 87.8696 56.0857C87.2601 55.4762 86.9554 54.7651 86.9554 53.9524V17.381C86.9554 16.5683 87.2601 15.8571 87.8696 15.2476C88.4792 14.6381 89.1903 14.3333 90.003 14.3333C90.8157 14.3333 91.5268 14.6381 92.1363 15.2476C92.7458 15.8571 93.0506 16.5683 93.0506 17.381V40.421L106.155 27.4381C106.765 26.8286 107.476 26.5238 108.289 26.5238C109.101 26.5238 109.812 26.8286 110.422 27.4381C111.032 28.0476 111.336 28.7587 111.336 29.5714C111.336 30.3841 111.032 31.0952 110.422 31.7048L100.365 41.64L110.422 51.819C111.032 52.4286 111.336 53.1397 111.336 53.9524C111.336 54.7651 111.032 55.4762 110.422 56.0857C109.812 56.6952 109.101 57 108.289 57ZM126.565 57C124.127 57 121.994 56.0857 120.165 54.2571C118.337 52.4286 117.423 50.2952 117.423 47.8571C117.423 45.419 118.337 43.2857 120.165 41.4571C121.994 39.6286 124.127 38.7143 126.565 38.7143H141.804V35.6667C141.804 34.854 141.499 34.1429 140.889 33.5333C140.28 32.9238 139.569 32.619 138.756 32.619H126.565C125.753 32.619 125.042 32.3143 124.432 31.7048C123.823 31.0952 123.518 30.3841 123.518 29.5714C123.518 28.7587 123.823 28.0476 124.432 27.4381C125.042 26.8286 125.753 26.5238 126.565 26.5238H138.756C141.194 26.5238 143.327 27.4381 145.156 29.2667C146.985 31.0952 147.899 33.2286 147.899 35.6667V53.9524C147.899 54.7651 147.594 55.4762 146.985 56.0857C146.375 56.6952 145.664 57 144.851 57H126.565ZM141.804 44.8095H126.565C125.753 44.8095 125.042 45.1143 124.432 45.7238C123.823 46.3333 123.518 47.0444 123.518 47.8571C123.518 48.6698 123.823 49.381 124.432 49.9905C125.042 50.6 125.753 50.9048 126.565 50.9048H141.804V44.8095ZM157.033 57C156.22 57 155.509 56.6952 154.899 56.0857C154.29 55.4762 153.985 54.7651 153.985 53.9524C153.985 53.1397 154.29 52.4286 154.899 51.819L173.977 32.619H157.033C156.22 32.619 155.509 32.3143 154.899 31.7048C154.29 31.0952 153.985 30.3841 153.985 29.5714C153.985 28.7587 154.29 28.0476 154.899 27.4381C155.509 26.8286 156.22 26.5238 157.033 26.5238H181.414C182.226 26.5238 182.938 26.8286 183.547 27.4381C184.157 28.0476 184.461 28.7587 184.461 29.5714C184.461 30.3841 184.157 31.0952 183.547 31.7048L164.225 50.9048H181.414C182.226 50.9048 182.938 51.2095 183.547 51.819C184.157 52.4286 184.461 53.1397 184.461 53.9524C184.461 54.7651 184.157 55.4762 183.547 56.0857C182.938 56.6952 182.226 57 181.414 57H157.033ZM199.69 57C197.252 57 195.119 56.0857 193.29 54.2571C191.462 52.4286 190.548 50.2952 190.548 47.8571C190.548 45.419 191.462 43.2857 193.29 41.4571C195.119 39.6286 197.252 38.7143 199.69 38.7143H214.929V35.6667C214.929 34.854 214.624 34.1429 214.014 33.5333C213.405 32.9238 212.694 32.619 211.881 32.619H199.69C198.878 32.619 198.167 32.3143 197.557 31.7048C196.948 31.0952 196.643 30.3841 196.643 29.5714C196.643 28.7587 196.948 28.0476 197.557 27.4381C198.167 26.8286 198.878 26.5238 199.69 26.5238H211.881C214.319 26.5238 216.452 27.4381 218.281 29.2667C220.11 31.0952 221.024 33.2286 221.024 35.6667V53.9524C221.024 54.7651 220.719 55.4762 220.11 56.0857C219.5 56.6952 218.789 57 217.976 57H199.69ZM214.929 44.8095H199.69C198.878 44.8095 198.167 45.1143 197.557 45.7238C196.948 46.3333 196.643 47.0444 196.643 47.8571C196.643 48.6698 196.948 49.381 197.557 49.9905C198.167 50.6 198.878 50.9048 199.69 50.9048H214.929V44.8095ZM254.539 57C253.726 57 253.015 56.6952 252.405 56.0857L242.348 46.0286L239.301 49.0762V53.9524C239.301 54.7651 238.996 55.4762 238.386 56.0857C237.777 56.6952 237.066 57 236.253 57C235.44 57 234.729 56.6952 234.12 56.0857C233.51 55.4762 233.205 54.7651 233.205 53.9524V17.381C233.205 16.5683 233.51 15.8571 234.12 15.2476C234.729 14.6381 235.44 14.3333 236.253 14.3333C237.066 14.3333 237.777 14.6381 238.386 15.2476C238.996 15.8571 239.301 16.5683 239.301 17.381V40.421L252.405 27.4381C253.015 26.8286 253.726 26.5238 254.539 26.5238C255.351 26.5238 256.062 26.8286 256.672 27.4381C257.282 28.0476 257.586 28.7587 257.586 29.5714C257.586 30.3841 257.282 31.0952 256.672 31.7048L246.615 41.64L256.672 51.819C257.282 52.4286 257.586 53.1397 257.586 53.9524C257.586 54.7651 257.282 55.4762 256.672 56.0857C256.062 56.6952 255.351 57 254.539 57ZM272.815 57C270.377 57 268.244 56.0857 266.415 54.2571C264.587 52.4286 263.673 50.2952 263.673 47.8571V35.6667C263.673 33.2286 264.587 31.0952 266.415 29.2667C268.244 27.4381 270.377 26.5238 272.815 26.5238H285.006C287.444 26.5238 289.577 27.4381 291.406 29.2667C293.235 31.0952 294.149 33.2286 294.149 35.6667V41.7619C294.149 42.5746 293.844 43.2857 293.235 43.8952C292.625 44.5048 291.914 44.8095 291.101 44.8095H269.768V47.8571C269.768 48.6698 270.073 49.381 270.682 49.9905C271.292 50.6 272.003 50.9048 272.815 50.9048H285.006C285.819 50.9048 286.53 51.2095 287.139 51.819C287.749 52.4286 288.054 53.1397 288.054 53.9524C288.054 54.7651 287.749 55.4762 287.139 56.0857C286.53 56.6952 285.819 57 285.006 57H272.815ZM269.768 38.7143H288.054V35.6667C288.054 34.854 287.749 34.1429 287.139 33.5333C286.53 32.9238 285.819 32.619 285.006 32.619H272.815C272.003 32.619 271.292 32.9238 270.682 33.5333C270.073 34.1429 269.768 34.854 269.768 35.6667V38.7143ZM309.378 57C306.94 57 304.807 56.0857 302.978 54.2571C301.149 52.4286 300.235 50.2952 300.235 47.8571V35.6667C300.235 33.2286 301.149 31.0952 302.978 29.2667C304.807 27.4381 306.94 26.5238 309.378 26.5238H321.568C324.007 26.5238 326.14 27.4381 327.968 29.2667C329.797 31.0952 330.711 33.2286 330.711 35.6667V41.7619C330.711 42.5746 330.407 43.2857 329.797 43.8952C329.188 44.5048 328.476 44.8095 327.664 44.8095H306.33V47.8571C306.33 48.6698 306.635 49.381 307.245 49.9905C307.854 50.6 308.565 50.9048 309.378 50.9048H321.568C322.381 50.9048 323.092 51.2095 323.702 51.819C324.311 52.4286 324.616 53.1397 324.616 53.9524C324.616 54.7651 324.311 55.4762 323.702 56.0857C323.092 56.6952 322.381 57 321.568 57H309.378ZM306.33 38.7143H324.616V35.6667C324.616 34.854 324.311 34.1429 323.702 33.5333C323.092 32.9238 322.381 32.619 321.568 32.619H309.378C308.565 32.619 307.854 32.9238 307.245 33.5333C306.635 34.1429 306.33 34.854 306.33 35.6667V38.7143Z" fill="#080808"/>
<path d="M32 5L5.01057 35.985M32 67L5 36" stroke="#080808" stroke-width="10" stroke-linecap="round"/>
<path d="M344 5L370.989 35.985M344 67L371 36" stroke="#080808" stroke-width="10" stroke-linecap="round"/>
</svg>
